<?xml version="1.0" encoding="UTF-8"?>
<svg xmlns="http://www.w3.org/2000/svg" viewBox="0 0 2770 910" width="2770" height="910">
  <g>
    <rect id="swimlane-swimlane_3" class="swimlane" x="20" y="470" width="2730" height="120" fill="#ffffff" stroke="#e5e7eb" stroke-width="1"/>
    <text class="swimlane-label" x="30" y="495" font-family="ui-sans-serif, system-ui, sans-serif" font-size="14" fill="#1f2937" font-weight="bold" text-anchor="start">swimlane_3</text>
  </g>
  <g>
    <rect id="swimlane-swimlane_5" class="swimlane" x="20" y="770" width="2730" height="120" fill="#ffffff" stroke="#e5e7eb" stroke-width="1"/>
    <text class="swimlane-label" x="30" y="795" font-family="ui-sans-serif, system-ui, sans-serif" font-size="14" fill="#1f2937" font-weight="bold" text-anchor="start">swimlane_5</text>
  </g>
  <g>
    <rect id="swimlane-swimlane_2" class="swimlane" x="20" y="320" width="2730" height="120" fill="#ffffff" stroke="#e5e7eb" stroke-width="1"/>
    <text class="swimlane-label" x="30" y="345" font-family="ui-sans-serif, system-ui, sans-serif" font-size="14" fill="#1f2937" font-weight="bold" text-anchor="start">swimlane_2</text>
  </g>
  <g>
    <rect id="swimlane-swimlane_0" class="swimlane" x="20" y="20" width="2730" height="120" fill="#ffffff" stroke="#e5e7eb" stroke-width="1"/>
    <text class="swimlane-label" x="30" y="45" font-family="ui-sans-serif, system-ui, sans-serif" font-size="14" fill="#1f2937" font-weight="bold" text-anchor="start">swimlane_0</text>
  </g>
  <g>
    <rect id="swimlane-swimlane_1" class="swimlane" x="20" y="170" width="2730" height="120" fill="#ffffff" stroke="#e5e7eb" stroke-width="1"/>
    <text class="swimlane-label" x="30" y="195" font-family="ui-sans-serif, system-ui, sans-serif" font-size="14" fill="#1f2937" font-weight="bold" text-anchor="start">swimlane_1</text>
  </g>
  <g>
    <rect id="swimlane-swimlane_4" class="swimlane" x="20" y="620" width="2730" height="120" fill="#ffffff" stroke="#e5e7eb" stroke-width="1"/>
    <text class="swimlane-label" x="30" y="645" font-family="ui-sans-serif, system-ui, sans-serif" font-size="14" fill="#1f2937" font-weight="bold" text-anchor="start">swimlane_4</text>
  </g>
  <rect id="entity-AddToCart" class="entity" x="1175" y="50" width="120" height="60" rx="8" ry="8" fill="#dbeafe" stroke="#0969da" stroke-width="2"/>
  <rect id="entity-OrderConfirmed" class="entity" x="1025" y="200" width="120" height="60" rx="8" ry="8" fill="#dbeafe" stroke="#0969da" stroke-width="2"/>
  <rect id="entity-OrderHistory" class="entity" x="1925" y="200" width="120" height="60" rx="8" ry="8" fill="#dbeafe" stroke="#0969da" stroke-width="2"/>
  <rect id="entity-ValidatePaymentDetails" class="entity" x="1775" y="500" width="120" height="60" rx="8" ry="8" fill="#dbeafe" stroke="#0969da" stroke-width="2"/>
  <rect id="entity-RemoveFromCart" class="entity" x="1325" y="50" width="120" height="60" rx="8" ry="8" fill="#dbeafe" stroke="#0969da" stroke-width="2"/>
  <rect id="entity-OrderShipped" class="entity" x="1325" y="200" width="120" height="60" rx="8" ry="8" fill="#dbeafe" stroke="#0969da" stroke-width="2"/>
  <rect id="entity-ItemAddedToCart" class="entity" x="275" y="200" width="120" height="60" rx="8" ry="8" fill="#dbeafe" stroke="#0969da" stroke-width="2"/>
  <rect id="entity-ShipmentDelivered" class="entity" x="1475" y="650" width="120" height="60" rx="8" ry="8" fill="#dbeafe" stroke="#0969da" stroke-width="2"/>
  <rect id="entity-CreateShipment" class="entity" x="875" y="650" width="120" height="60" rx="8" ry="8" fill="#dbeafe" stroke="#0969da" stroke-width="2"/>
  <rect id="entity-UpdateShipmentStatus" class="entity" x="1025" y="650" width="120" height="60" rx="8" ry="8" fill="#dbeafe" stroke="#0969da" stroke-width="2"/>
  <rect id="entity-ShipmentDispatched" class="entity" x="1325" y="650" width="120" height="60" rx="8" ry="8" fill="#dbeafe" stroke="#0969da" stroke-width="2"/>
  <rect id="entity-OrderCancelled" class="entity" x="1625" y="200" width="120" height="60" rx="8" ry="8" fill="#dbeafe" stroke="#0969da" stroke-width="2"/>
  <rect id="entity-ViewOrderStatus" class="entity" x="1625" y="50" width="120" height="60" rx="8" ry="8" fill="#dbeafe" stroke="#0969da" stroke-width="2"/>
  <rect id="entity-ProcessPayment" class="entity" x="875" y="500" width="120" height="60" rx="8" ry="8" fill="#dbeafe" stroke="#0969da" stroke-width="2"/>
  <rect id="entity-ItemRemovedFromCart" class="entity" x="425" y="200" width="120" height="60" rx="8" ry="8" fill="#dbeafe" stroke="#0969da" stroke-width="2"/>
  <rect id="entity-ValidateOrder" class="entity" x="2225" y="200" width="120" height="60" rx="8" ry="8" fill="#dbeafe" stroke="#0969da" stroke-width="2"/>
  <rect id="entity-SMSSender" class="entity" x="1700" y="800" width="120" height="60" rx="8" ry="8" fill="#dbeafe" stroke="#0969da" stroke-width="2"/>
  <rect id="entity-OrderRejected" class="entity" x="875" y="200" width="120" height="60" rx="8" ry="8" fill="#dbeafe" stroke="#0969da" stroke-width="2"/>
  <rect id="entity-InsufficientInventory" class="entity" x="1475" y="350" width="120" height="60" rx="8" ry="8" fill="#dbeafe" stroke="#0969da" stroke-width="2"/>
  <rect id="entity-PaymentFailed" class="entity" x="1325" y="500" width="120" height="60" rx="8" ry="8" fill="#dbeafe" stroke="#0969da" stroke-width="2"/>
  <rect id="entity-ShipmentTracking" class="entity" x="1625" y="650" width="120" height="60" rx="8" ry="8" fill="#dbeafe" stroke="#0969da" stroke-width="2"/>
  <rect id="entity-NotificationFailed" class="entity" x="1250" y="800" width="120" height="60" rx="8" ry="8" fill="#dbeafe" stroke="#0969da" stroke-width="2"/>
  <rect id="entity-ActiveCarts" class="entity" x="1775" y="200" width="120" height="60" rx="8" ry="8" fill="#dbeafe" stroke="#0969da" stroke-width="2"/>
  <rect id="entity-TrackShipment" class="entity" x="1775" y="650" width="120" height="60" rx="8" ry="8" fill="#dbeafe" stroke="#0969da" stroke-width="2"/>
  <rect id="entity-InventoryReserved" class="entity" x="1175" y="350" width="120" height="60" rx="8" ry="8" fill="#dbeafe" stroke="#0969da" stroke-width="2"/>
  <rect id="entity-BrowseCatalog" class="entity" x="1025" y="50" width="120" height="60" rx="8" ry="8" fill="#dbeafe" stroke="#0969da" stroke-width="2"/>
  <rect id="entity-PaymentHistory" class="entity" x="1625" y="500" width="120" height="60" rx="8" ry="8" fill="#dbeafe" stroke="#0969da" stroke-width="2"/>
  <rect id="entity-AvailableInventory" class="entity" x="1625" y="350" width="120" height="60" rx="8" ry="8" fill="#dbeafe" stroke="#0969da" stroke-width="2"/>
  <rect id="entity-OrderPlaced" class="entity" x="575" y="200" width="120" height="60" rx="8" ry="8" fill="#dbeafe" stroke="#0969da" stroke-width="2"/>
  <rect id="entity-OrderStatus" class="entity" x="2075" y="200" width="120" height="60" rx="8" ry="8" fill="#dbeafe" stroke="#0969da" stroke-width="2"/>
  <rect id="entity-InventoryReleased" class="entity" x="1325" y="350" width="120" height="60" rx="8" ry="8" fill="#dbeafe" stroke="#0969da" stroke-width="2"/>
  <rect id="entity-ShipmentCreated" class="entity" x="1175" y="650" width="120" height="60" rx="8" ry="8" fill="#dbeafe" stroke="#0969da" stroke-width="2"/>
  <rect id="entity-EmailSender" class="entity" x="1550" y="800" width="120" height="60" rx="8" ry="8" fill="#dbeafe" stroke="#0969da" stroke-width="2"/>
  <rect id="entity-PaymentRefunded" class="entity" x="1475" y="500" width="120" height="60" rx="8" ry="8" fill="#dbeafe" stroke="#0969da" stroke-width="2"/>
  <rect id="entity-RefundPayment" class="entity" x="1025" y="500" width="120" height="60" rx="8" ry="8" fill="#dbeafe" stroke="#0969da" stroke-width="2"/>
  <rect id="entity-OrderDelivered" class="entity" x="1475" y="200" width="120" height="60" rx="8" ry="8" fill="#dbeafe" stroke="#0969da" stroke-width="2"/>
  <rect id="entity-CheckInventoryAvailability" class="entity" x="1775" y="350" width="120" height="60" rx="8" ry="8" fill="#dbeafe" stroke="#0969da" stroke-width="2"/>
  <rect id="entity-ProcessOrderFulfillment" class="entity" x="2375" y="200" width="120" height="60" rx="8" ry="8" fill="#dbeafe" stroke="#0969da" stroke-width="2"/>
  <rect id="entity-PaymentProcessed" class="entity" x="1175" y="500" width="120" height="60" rx="8" ry="8" fill="#dbeafe" stroke="#0969da" stroke-width="2"/>
  <rect id="entity-Checkout" class="entity" x="1475" y="50" width="120" height="60" rx="8" ry="8" fill="#dbeafe" stroke="#0969da" stroke-width="2"/>
  <rect id="entity-NotificationSent" class="entity" x="1100" y="800" width="120" height="60" rx="8" ry="8" fill="#dbeafe" stroke="#0969da" stroke-width="2"/>
  <rect id="entity-ReserveInventory" class="entity" x="875" y="350" width="120" height="60" rx="8" ry="8" fill="#dbeafe" stroke="#0969da" stroke-width="2"/>
  <rect id="entity-ReleaseInventory" class="entity" x="1025" y="350" width="120" height="60" rx="8" ry="8" fill="#dbeafe" stroke="#0969da" stroke-width="2"/>
  <rect id="entity-OrderValidated" class="entity" x="725" y="200" width="120" height="60" rx="8" ry="8" fill="#dbeafe" stroke="#0969da" stroke-width="2"/>
  <rect id="entity-SendNotification" class="entity" x="950" y="800" width="120" height="60" rx="8" ry="8" fill="#dbeafe" stroke="#0969da" stroke-width="2"/>
  <rect id="entity-DetermineNotificationType" class="entity" x="1400" y="800" width="120" height="60" rx="8" ry="8" fill="#dbeafe" stroke="#0969da" stroke-width="2"/>
  <rect id="entity-OrderFulfillmentStarted" class="entity" x="1175" y="200" width="120" height="60" rx="8" ry="8" fill="#dbeafe" stroke="#0969da" stroke-width="2"/>
  <path id="connector-AddToCart-ItemAddedToCart" class="connector" d="M 1235 80 L 335 230" fill="none" stroke="#6b7280" stroke-width="2"/>
  <path id="connector-RemoveFromCart-ItemRemovedFromCart" class="connector" d="M 1385 80 L 485 230" fill="none" stroke="#6b7280" stroke-width="2"/>
  <path id="connector-Checkout-OrderPlaced" class="connector" d="M 1535 80 L 635 230" fill="none" stroke="#6b7280" stroke-width="2"/>
  <path id="connector-OrderPlaced-ValidateOrder" class="connector" d="M 635 230 L 2285 230" fill="none" stroke="#6b7280" stroke-width="2"/>
  <path id="connector-ValidateOrder-ReserveInventory" class="connector" d="M 2285 230 L 935 380" fill="none" stroke="#6b7280" stroke-width="2"/>
  <path id="connector-ReserveInventory-InventoryReserved" class="connector" d="M 935 380 L 1235 380" fill="none" stroke="#6b7280" stroke-width="2"/>
  <path id="connector-ReserveInventory-InsufficientInventory" class="connector" d="M 935 380 L 1535 380" fill="none" stroke="#6b7280" stroke-width="2"/>
  <path id="connector-InventoryReserved-ProcessPayment" class="connector" d="M 1235 380 L 935 530" fill="none" stroke="#6b7280" stroke-width="2"/>
  <path id="connector-InsufficientInventory-OrderRejected" class="connector" d="M 1535 380 L 935 230" fill="none" stroke="#6b7280" stroke-width="2"/>
  <path id="connector-ProcessPayment-PaymentProcessed" class="connector" d="M 935 530 L 1235 530" fill="none" stroke="#6b7280" stroke-width="2"/>
  <path id="connector-ProcessPayment-PaymentFailed" class="connector" d="M 935 530 L 1385 530" fill="none" stroke="#6b7280" stroke-width="2"/>
  <path id="connector-PaymentProcessed-OrderConfirmed" class="connector" d="M 1235 530 L 1085 230" fill="none" stroke="#6b7280" stroke-width="2"/>
  <path id="connector-PaymentFailed-ReleaseInventory" class="connector" d="M 1385 530 L 1085 380" fill="none" stroke="#6b7280" stroke-width="2"/>
  <path id="connector-ReleaseInventory-InventoryReleased" class="connector" d="M 1085 380 L 1385 380" fill="none" stroke="#6b7280" stroke-width="2"/>
  <path id="connector-InventoryReleased-OrderRejected" class="connector" d="M 1385 380 L 935 230" fill="none" stroke="#6b7280" stroke-width="2"/>
  <path id="connector-OrderConfirmed-ProcessOrderFulfillment" class="connector" d="M 1085 230 L 2435 230" fill="none" stroke="#6b7280" stroke-width="2"/>
  <path id="connector-ProcessOrderFulfillment-OrderFulfillmentStarted" class="connector" d="M 2435 230 L 1235 230" fill="none" stroke="#6b7280" stroke-width="2"/>
  <path id="connector-OrderFulfillmentStarted-CreateShipment" class="connector" d="M 1235 230 L 935 680" fill="none" stroke="#6b7280" stroke-width="2"/>
  <path id="connector-CreateShipment-ShipmentCreated" class="connector" d="M 935 680 L 1235 680" fill="none" stroke="#6b7280" stroke-width="2"/>
  <path id="connector-ShipmentCreated-OrderShipped" class="connector" d="M 1235 680 L 1385 230" fill="none" stroke="#6b7280" stroke-width="2"/>
  <path id="connector-OrderShipped-UpdateShipmentStatus" class="connector" d="M 1385 230 L 1085 680" fill="none" stroke="#6b7280" stroke-width="2"/>
  <path id="connector-UpdateShipmentStatus-ShipmentDispatched" class="connector" d="M 1085 680 L 1385 680" fill="none" stroke="#6b7280" stroke-width="2"/>
  <path id="connector-ShipmentDispatched-ShipmentDelivered" class="connector" d="M 1385 680 L 1535 680" fill="none" stroke="#6b7280" stroke-width="2"/>
  <path id="connector-ShipmentDelivered-OrderDelivered" class="connector" d="M 1535 680 L 1535 230" fill="none" stroke="#6b7280" stroke-width="2"/>
  <path id="connector-ItemAddedToCart-ActiveCarts" class="connector" d="M 335 230 L 1835 230" fill="none" stroke="#6b7280" stroke-width="2"/>
  <path id="connector-ItemRemovedFromCart-ActiveCarts" class="connector" d="M 485 230 L 1835 230" fill="none" stroke="#6b7280" stroke-width="2"/>
  <path id="connector-OrderPlaced-OrderHistory" class="connector" d="M 635 230 L 1985 230" fill="none" stroke="#6b7280" stroke-width="2"/>
  <path id="connector-OrderConfirmed-OrderStatus" class="connector" d="M 1085 230 L 2135 230" fill="none" stroke="#6b7280" stroke-width="2"/>
  <path id="connector-OrderRejected-OrderStatus" class="connector" d="M 935 230 L 2135 230" fill="none" stroke="#6b7280" stroke-width="2"/>
  <path id="connector-OrderShipped-OrderStatus" class="connector" d="M 1385 230 L 2135 230" fill="none" stroke="#6b7280" stroke-width="2"/>
  <path id="connector-OrderDelivered-OrderStatus" class="connector" d="M 1535 230 L 2135 230" fill="none" stroke="#6b7280" stroke-width="2"/>
  <path id="connector-OrderCancelled-OrderStatus" class="connector" d="M 1685 230 L 2135 230" fill="none" stroke="#6b7280" stroke-width="2"/>
  <path id="connector-InventoryReserved-AvailableInventory" class="connector" d="M 1235 380 L 1685 380" fill="none" stroke="#6b7280" stroke-width="2"/>
  <path id="connector-InventoryReleased-AvailableInventory" class="connector" d="M 1385 380 L 1685 380" fill="none" stroke="#6b7280" stroke-width="2"/>
  <path id="connector-PaymentProcessed-PaymentHistory" class="connector" d="M 1235 530 L 1685 530" fill="none" stroke="#6b7280" stroke-width="2"/>
  <path id="connector-PaymentRefunded-PaymentHistory" class="connector" d="M 1535 530 L 1685 530" fill="none" stroke="#6b7280" stroke-width="2"/>
  <path id="connector-ShipmentCreated-ShipmentTracking" class="connector" d="M 1235 680 L 1685 680" fill="none" stroke="#6b7280" stroke-width="2"/>
  <path id="connector-ShipmentDispatched-ShipmentTracking" class="connector" d="M 1385 680 L 1685 680" fill="none" stroke="#6b7280" stroke-width="2"/>
  <path id="connector-ShipmentDelivered-ShipmentTracking" class="connector" d="M 1535 680 L 1685 680" fill="none" stroke="#6b7280" stroke-width="2"/>
  <path id="connector-OrderConfirmed-SendNotification" class="connector" d="M 1085 230 L 1010 830" fill="none" stroke="#6b7280" stroke-width="2"/>
  <path id="connector-OrderRejected-SendNotification" class="connector" d="M 935 230 L 1010 830" fill="none" stroke="#6b7280" stroke-width="2"/>
  <path id="connector-OrderShipped-SendNotification" class="connector" d="M 1385 230 L 1010 830" fill="none" stroke="#6b7280" stroke-width="2"/>
  <path id="connector-OrderDelivered-SendNotification" class="connector" d="M 1535 230 L 1010 830" fill="none" stroke="#6b7280" stroke-width="2"/>
  <path id="connector-SendNotification-DetermineNotificationType" class="connector" d="M 1010 830 L 1460 830" fill="none" stroke="#6b7280" stroke-width="2"/>
  <path id="connector-DetermineNotificationType-EmailSender" class="connector" d="M 1460 830 L 1610 830" fill="none" stroke="#6b7280" stroke-width="2"/>
  <path id="connector-DetermineNotificationType-SMSSender" class="connector" d="M 1460 830 L 1760 830" fill="none" stroke="#6b7280" stroke-width="2"/>
  <path id="connector-EmailSender-NotificationSent" class="connector" d="M 1610 830 L 1160 830" fill="none" stroke="#6b7280" stroke-width="2"/>
  <path id="connector-SMSSender-NotificationSent" class="connector" d="M 1760 830 L 1160 830" fill="none" stroke="#6b7280" stroke-width="2"/>
  <path id="connector-EmailSender-NotificationFailed" class="connector" d="M 1610 830 L 1310 830" fill="none" stroke="#6b7280" stroke-width="2"/>
  <path id="connector-SMSSender-NotificationFailed" class="connector" d="M 1760 830 L 1310 830" fill="none" stroke="#6b7280" stroke-width="2"/>
  <path id="connector-TrackShipment-ShipmentTracking" class="connector" d="M 1835 680 L 1685 680" fill="none" stroke="#6b7280" stroke-width="2"/>
</svg>
